<?xml version="1.0" encoding="UTF-8"?>
<svg version="1.1" xmlns="http://www.w3.org/2000/svg" width="48" height="48">
<path d="M0 0 C4.31633181 3.18586395 7.91120739 6.79612218 9.625 11.9375 C10.57416973 24.58701198 10.57416973 24.58701198 6.625 29.9375 C1.6016523 34.9608477 -1.93953616 37.07809677 -9.1875 37.1875 C-15.00495029 37.11049404 -18.78081164 36.53168836 -23.02734375 32.28515625 C-28.10018167 26.63938605 -28.68170367 22.40870416 -28.58203125 14.87890625 C-28.18423016 9.22712847 -25.94917386 6.28572704 -21.875 2.625 C-15.80117425 -2.44984125 -7.33000764 -2.307595 0 0 Z " fill="#049BE5" transform="translate(33.375,6.0625)"/>
<path d="M0 0 C0 1.32 0 2.64 0 4 C-1.32 4.33 -2.64 4.66 -4 5 C-4.33 6.98 -4.66 8.96 -5 11 C-3.35 11 -1.7 11 0 11 C0 12.65 0 14.3 0 16 C-1.65 16 -3.3 16 -5 16 C-5 20.62 -5 25.24 -5 30 C-6.98 30 -8.96 30 -11 30 C-11 25.38 -11 20.76 -11 16 C-12.65 16 -14.3 16 -16 16 C-16 14.35 -16 12.7 -16 11 C-14.35 11 -12.7 11 -11 11 C-11.12375 9.39125 -11.12375 9.39125 -11.25 7.75 C-11 4 -11 4 -9.4375 1.5625 C-6.18129203 -0.5248128 -3.79004984 -0.2915423 0 0 Z " fill="#EDF7FD" transform="translate(32,13)"/>
</svg>
