<?xml version="1.0" encoding="UTF-8"?>
<svg version="1.1" xmlns="http://www.w3.org/2000/svg" width="94" height="94">
<path d="M0 0 C7.11719337 0.01632754 14.23335212 0.07128939 21.35009766 0.15258789 C23.76897472 0.17572498 26.18795191 0.19015347 28.60693359 0.19555664 C32.09275403 0.20487702 35.57700877 0.24593905 39.0625 0.29296875 C40.13677246 0.2890361 41.21104492 0.28510345 42.31787109 0.28105164 C49.08653801 0.4113442 53.80699421 1.49184062 59 6 C62.3015516 10.36656824 63.10406527 14.38746841 63.20532227 19.76855469 C63.2352401 21.17956451 63.2352401 21.17956451 63.26576233 22.61907959 C63.28247482 23.62650208 63.29918732 24.63392456 63.31640625 25.671875 C63.33718735 26.70942932 63.35796844 27.74698364 63.37937927 28.815979 C63.44471408 32.12725258 63.50368517 35.43860482 63.5625 38.75 C63.60570049 40.99610185 63.64931527 43.24219578 63.69335938 45.48828125 C63.80037903 50.99210457 63.90217522 56.49600598 64 62 C63.34 62 62.68 62 62 62 C61.13375 63.36125 61.13375 63.36125 60.25 64.75 C57.0830744 69.32444808 53.45913882 71.93497068 48 73 C46.60811454 73.09669198 45.2125588 73.14777412 43.81738281 73.16113281 C43.00263489 73.17074036 42.18788696 73.1803479 41.34844971 73.19024658 C40.47549255 73.19449646 39.6025354 73.19874634 38.703125 73.203125 C37.79552429 73.20882507 36.88792358 73.21452515 35.95281982 73.22039795 C34.03301148 73.22983483 32.11318704 73.23637672 30.19335938 73.24023438 C27.27444742 73.24991889 24.3562462 73.28094599 21.4375 73.3125 C19.56771249 73.31903281 17.69791997 73.32428219 15.828125 73.328125 C14.96326477 73.3404718 14.09840454 73.3528186 13.20733643 73.36553955 C6.84173216 73.34244938 0.96612704 72.52711773 -4.05859375 68.24609375 C-4.74115234 67.35083984 -4.74115234 67.35083984 -5.4375 66.4375 C-6.14712891 65.53837891 -6.14712891 65.53837891 -6.87109375 64.62109375 C-8.87518463 61.74324698 -9.13260577 59.93034777 -9.16113281 56.46191406 C-9.17074036 55.52043518 -9.1803479 54.5789563 -9.19024658 53.60894775 C-9.19449646 52.58815125 -9.19874634 51.56735474 -9.203125 50.515625 C-9.20882507 49.46727478 -9.21452515 48.41892456 -9.22039795 47.33880615 C-9.22985734 45.11618054 -9.23638564 42.89354085 -9.24023438 40.67089844 C-9.2499208 37.2777437 -9.28092792 33.88519949 -9.3125 30.4921875 C-9.31903189 28.33333693 -9.32428163 26.17448203 -9.328125 24.015625 C-9.3404718 23.00292542 -9.3528186 21.99022583 -9.36553955 20.94683838 C-9.34628334 14.82504281 -8.95223317 9.95941621 -4.39453125 5.390625 C-3.61142578 4.82601563 -3.61142578 4.82601563 -2.8125 4.25 C-1.884375 3.5075 -0.95625 2.765 0 2 C0 1.34 0 0.68 0 0 Z " fill="#E9D9E0" transform="translate(20,10)"/>
<path d="M0 0 C0.66914429 -0.00241196 1.33828857 -0.00482391 2.02770996 -0.00730896 C3.43633985 -0.00633354 4.84500951 0.00698777 6.25341797 0.03198242 C8.40074807 0.06631827 10.54396249 0.05262699 12.69140625 0.03320312 C14.06512155 0.04010214 15.43882631 0.04977506 16.8125 0.0625 C18.05322266 0.07337646 19.29394531 0.08425293 20.57226562 0.09545898 C24.46524219 0.71834664 26.12658929 1.88799427 28.90625 4.62890625 C31.00348531 8.82337687 30.2150788 14.22602763 30.25634766 18.84033203 C30.27286388 20.19239568 30.30009766 21.54437357 30.33837891 22.89599609 C30.69511736 35.56796652 30.69511736 35.56796652 27.5078125 39.48828125 C22.00270339 44.01801067 15.97525921 42.85153078 9.09375 42.87890625 C7.16692383 42.90984375 7.16692383 42.90984375 5.20117188 42.94140625 C3.96302734 42.9465625 2.72488281 42.95171875 1.44921875 42.95703125 C-0.2519812 42.9710498 -0.2519812 42.9710498 -1.98754883 42.98535156 C-5.47704285 42.58492232 -7.30279936 41.7283456 -10.09375 39.62890625 C-13.32972066 34.77495026 -12.50449846 29.11402897 -12.51928711 23.43261719 C-12.53117412 21.26772545 -12.58034944 19.10569554 -12.63085938 16.94140625 C-12.64032566 15.55860761 -12.64755972 14.17579152 -12.65234375 12.79296875 C-12.66579834 11.5395166 -12.67925293 10.28606445 -12.69311523 8.99462891 C-11.38630286 1.65625194 -6.90272426 -0.00403406 0 0 Z " fill="#B432A1" transform="translate(38.09375,25.37109375)"/>
<path d="M0 0 C0.33 0 0.66 0 1 0 C1.33 15.51 1.66 31.02 2 47 C1.34 47 0.68 47 0 47 C-0.86625 48.36125 -0.86625 48.36125 -1.75 49.75 C-4.9169256 54.32444808 -8.54086118 56.93497068 -14 58 C-15.39188546 58.09669198 -16.7874412 58.14777412 -18.18261719 58.16113281 C-19.40473907 58.17554413 -19.40473907 58.17554413 -20.65155029 58.19024658 C-21.52450745 58.19449646 -22.3974646 58.19874634 -23.296875 58.203125 C-24.20447571 58.20882507 -25.11207642 58.21452515 -26.04718018 58.22039795 C-27.96698852 58.22983483 -29.88681296 58.23637672 -31.80664062 58.24023438 C-34.72555258 58.24991889 -37.6437538 58.28094599 -40.5625 58.3125 C-42.43228751 58.31903281 -44.30208003 58.32428219 -46.171875 58.328125 C-47.03673523 58.3404718 -47.90159546 58.3528186 -48.79266357 58.36553955 C-55.15826784 58.34244938 -61.03387296 57.52711773 -66.05859375 53.24609375 C-66.51363281 52.64925781 -66.96867187 52.05242187 -67.4375 51.4375 C-67.91058594 50.83808594 -68.38367188 50.23867187 -68.87109375 49.62109375 C-71.12059542 46.39084049 -71.11740481 44.24615337 -71.09765625 40.3359375 C-71.09443359 39.21445313 -71.09121094 38.09296875 -71.08789062 36.9375 C-71.07951172 35.761875 -71.07113281 34.58625 -71.0625 33.375 C-71.05798828 32.19164062 -71.05347656 31.00828125 -71.04882812 29.7890625 C-71.03701467 26.85932493 -71.02054258 23.92968728 -71 21 C-67.7 20.67 -64.4 20.34 -61 20 C-60.96261719 21.08539063 -60.92523438 22.17078125 -60.88671875 23.2890625 C-60.82102125 24.73440739 -60.75457524 26.17971839 -60.6875 27.625 C-60.66494141 28.33785156 -60.64238281 29.05070312 -60.61914062 29.78515625 C-60.32378491 35.63856951 -59.14014449 39.87609443 -54.84423828 44.1394043 C-51.24140741 46.49624328 -49.00564513 46.50231234 -44.72265625 46.49609375 C-43.68920326 46.4982766 -43.68920326 46.4982766 -42.63487244 46.50050354 C-41.18337764 46.4988499 -39.73186434 46.48734844 -38.28051758 46.46655273 C-36.07231215 46.43762852 -33.86651622 46.44594655 -31.65820312 46.45898438 C-22.37302992 46.60840953 -22.37302992 46.60840953 -14 43 C-11.07748671 38.65397613 -10.5987648 35.02219272 -10.48828125 29.8515625 C-10.47033005 29.19417084 -10.45237885 28.53677917 -10.43388367 27.85946655 C-10.38015563 25.78137428 -10.34600875 23.70350653 -10.3125 21.625 C-10.27929347 20.20700024 -10.24480076 18.78902999 -10.20898438 17.37109375 C-10.12445349 13.9142782 -10.05746432 10.45738362 -10 7 C-8 10 -8 10 -8 12 C-7.34 12 -6.68 12 -6 12 C-6 12.66 -6 13.32 -6 14 C-3.525 13.505 -3.525 13.505 -1 13 C-0.505 6.565 -0.505 6.565 0 0 Z " fill="#E02859" transform="translate(82,25)"/>
<path d="M0 0 C0.03738281 1.08539063 0.07476562 2.17078125 0.11328125 3.2890625 C0.17897875 4.73440739 0.24542476 6.17971839 0.3125 7.625 C0.33505859 8.33785156 0.35761719 9.05070312 0.38085938 9.78515625 C0.67926421 15.69899755 2.06757098 19.72834775 5.98046875 24.328125 C10.60046077 26.88615422 15.11218054 26.67680293 20.3125 26.75 C21.33923828 26.77964844 22.36597656 26.80929688 23.42382812 26.83984375 C25.94929675 26.91032194 28.47385415 26.9631266 31 27 C31 27.66 31 28.32 31 29 C32.62626404 30.38232443 34.2925002 31.71937515 36 33 C35 36 35 36 33 37 C28.48706684 37.2356996 23.97026544 37.22842295 19.4519043 37.24023438 C17.20648855 37.24991811 14.96199688 37.28092957 12.71679688 37.3125 C11.28385959 37.31903252 9.85091577 37.32428202 8.41796875 37.328125 C6.46540161 37.34214355 6.46540161 37.34214355 4.47338867 37.35644531 C0.11483214 36.9091625 -2.46391321 35.52444977 -5.546875 32.46484375 C-9.08369374 27.97492126 -10.12630956 26.00929335 -10.09765625 20.3359375 C-10.09443359 19.21445313 -10.09121094 18.09296875 -10.08789062 16.9375 C-10.07951172 15.761875 -10.07113281 14.58625 -10.0625 13.375 C-10.05798828 12.19164062 -10.05347656 11.00828125 -10.04882812 9.7890625 C-10.03701467 6.85932493 -10.02054258 3.92968728 -10 1 C-8.5209084 0.83266843 -7.04172444 0.66615314 -5.5625 0.5 C-4.32693359 0.36078125 -4.32693359 0.36078125 -3.06640625 0.21875 C-1 0 -1 0 0 0 Z " fill="#E98824" transform="translate(21,45)"/>
<path d="M0 0 C0.14886815 4.03814395 0.25745089 8.07521605 0.32958984 12.11547852 C0.3596733 13.4881575 0.40055334 14.86064563 0.45263672 16.23266602 C0.85152242 27.01431198 0.85152242 27.01431198 -0.86791992 31.02392578 C-4.03322168 34.42228188 -8.11117262 34.35253726 -12.53515625 34.59375 C-15.04445984 34.58845332 -17.55382352 34.55634598 -20.0625 34.5 C-21.32900391 34.50257812 -22.59550781 34.50515625 -23.90039062 34.5078125 C-34.44292563 34.39642808 -34.44292563 34.39642808 -39 31 C-41.10209857 27.84685215 -41.2434761 27.13896919 -41.1953125 23.55078125 C-41.18886719 22.70322266 -41.18242188 21.85566406 -41.17578125 20.98242188 C-41.15902344 20.10134766 -41.14226563 19.22027344 -41.125 18.3125 C-41.11597656 17.41982422 -41.10695313 16.52714844 -41.09765625 15.60742188 C-41.07409748 13.40467686 -41.04120329 11.20247412 -41 9 C-37.535 8.505 -37.535 8.505 -34 8 C-33.91363281 8.73605469 -33.82726563 9.47210938 -33.73828125 10.23046875 C-32.83004952 16.53809644 -32.11530198 20.06515232 -27 24 C-26.67 24.33 -26.34 24.66 -26 25 C-21.44120602 25.43899498 -17.30709835 25.55621206 -13.0625 23.75 C-10.06634645 21.20780911 -8.16631952 19.34639612 -7.671875 15.34375 C-7.69765625 14.4053125 -7.7234375 13.466875 -7.75 12.5 C-7.76546875 11.5615625 -7.7809375 10.623125 -7.796875 9.65625 C-7.9061814 7.04279897 -7.9061814 7.04279897 -8.640625 4.78125 C-8.75921875 4.1934375 -8.8778125 3.605625 -9 3 C-6.40198864 0.40198864 -3.67135617 0 0 0 Z " fill="#F85825" transform="translate(67,34)"/>
<path d="M0 0 C0.66878174 -0.00555908 1.33756348 -0.01111816 2.02661133 -0.0168457 C7.15847105 0.05714414 12.22667595 0.2436678 16.41137695 3.51269531 C21.40490714 9.12832106 20.42861918 16.17593429 20.1875 23.25 C20.16494141 24.50619141 20.14238281 25.76238281 20.11914062 27.05664062 C20.06046147 30.14316415 19.97840527 33.22720486 19.875 36.3125 C19.545 36.3125 19.215 36.3125 18.875 36.3125 C18.38 31.8575 18.38 31.8575 17.875 27.3125 C16.555 27.3125 15.235 27.3125 13.875 27.3125 C13.875 26.6525 13.875 25.9925 13.875 25.3125 C13.215 25.3125 12.555 25.3125 11.875 25.3125 C11.57207031 24.63703125 11.26914063 23.9615625 10.95703125 23.265625 C7.6907394 16.25995068 7.6907394 16.25995068 1.875 11.3125 C-0.90141555 10.38702815 -3.11789564 10.04041858 -6.01171875 9.77734375 C-6.94951172 9.69033203 -7.88730469 9.60332031 -8.85351562 9.51367188 C-9.82998047 9.42666016 -10.80644531 9.33964844 -11.8125 9.25 C-12.80056641 9.15912109 -13.78863281 9.06824219 -14.80664062 8.97460938 C-17.24582148 8.75072321 -19.68525587 8.53014761 -22.125 8.3125 C-15.39303648 1.20847632 -9.67103663 0.06786302 0 0 Z " fill="#DC32DC" transform="translate(62.125,11.6875)"/>
<path d="M0 0 C7.22680173 0.09210866 14.45326226 0.19939246 21.6796875 0.31738281 C24.13959602 0.35573762 26.59956187 0.39057884 29.05957031 0.421875 C32.58940163 0.46738451 36.11883595 0.52540198 39.6484375 0.5859375 C40.75367767 0.59748871 41.85891785 0.60903992 42.99765015 0.62094116 C44.01855743 0.64081085 45.03946472 0.66068054 46.09130859 0.68115234 C46.99287689 0.69447601 47.89444519 0.70779968 48.82333374 0.7215271 C51 1 51 1 53 3 C51.13408203 2.93039063 51.13408203 2.93039063 49.23046875 2.859375 C35.66554166 2.4836475 35.66554166 2.4836475 23 7 C22.34 7.66 21.68 8.32 21 9 C23.31 9.33 25.62 9.66 28 10 C28 10.33 28 10.66 28 11 C26.84242187 11.02578125 25.68484375 11.0515625 24.4921875 11.078125 C22.95308872 11.13443349 21.41402767 11.1917802 19.875 11.25 C18.73417969 11.27126953 18.73417969 11.27126953 17.5703125 11.29296875 C12.30741903 11.51981761 9.17673263 12.52577592 5 16 C3.95650161 17.63978318 2.94392019 19.30094366 2 21 C1.34 21 0.68 21 0 21 C0 20.01 0 19.02 0 18 C-0.763125 18.185625 -1.52625 18.37125 -2.3125 18.5625 C-5 19 -5 19 -8 18 C-9.0443145 14.77211882 -9.08529053 13.24082032 -7.9375 10 C-5.6597502 6.47316161 -3.26146762 4.60917409 0 2 C0 1.34 0 0.68 0 0 Z " fill="#987AFC" transform="translate(20,10)"/>
<path d="M0 0 C0.33 0.66 0.66 1.32 1 2 C3.64 2 6.28 2 9 2 C9 2.99 9 3.98 9 5 C9.99 5 10.98 5 12 5 C12.33 8.96 12.66 12.92 13 17 C13.33 13.37 13.66 9.74 14 6 C14.33 6 14.66 6 15 6 C15.02505615 6.8878418 15.0501123 7.77568359 15.07592773 8.69042969 C15.17121797 11.99296037 15.27044207 15.29532459 15.37231445 18.59765625 C15.41555318 20.02534388 15.45723585 21.45307954 15.49731445 22.88085938 C15.55528602 24.93634496 15.61890175 26.99159128 15.68359375 29.046875 C15.72025146 30.28276367 15.75690918 31.51865234 15.79467773 32.79199219 C15.96163937 36.50525137 15.96163937 36.50525137 17 40 C20.33431493 42.50723681 23.9019173 42.31106569 27.953125 42.4140625 C28.61334656 42.43342865 29.27356812 42.4527948 29.95379639 42.4727478 C32.05240153 42.53229349 34.15106228 42.57882722 36.25 42.625 C37.6771066 42.66320294 39.10419072 42.70225602 40.53125 42.7421875 C44.02062691 42.8379733 47.51017286 42.92209642 51 43 C51 43.99 51 44.98 51 46 C46.57101901 46.14920123 42.14339827 46.25760752 37.71264648 46.32958984 C36.20815528 46.35961832 34.70383703 46.40045606 33.19995117 46.45263672 C19.09514485 46.92949792 19.09514485 46.92949792 14.59765625 43.2890625 C10.23065192 38.39850534 9.66852515 33.57778716 9.375 27.1875 C9.33632813 26.49462891 9.29765625 25.80175781 9.2578125 25.08789062 C9.16426432 23.39232985 9.08107636 21.69620288 9 20 C6.03 20 3.06 20 0 20 C0 13.4 0 6.8 0 0 Z " fill="#E9CBCE" transform="translate(11,26)"/>
<path d="M0 0 C2.96349122 0.25867286 5.09554807 0.95703723 7.5625 2.625 C10.48253298 6.2020404 10.91621888 8.02304105 10.5703125 12.52734375 C9.69177537 16.26450553 8.27129247 17.65744762 5.0625 19.6875 C1.87874146 20.43594233 -0.76106481 20.49166081 -3.9375 19.6875 C-7.5369734 16.67569573 -8.73834148 14.80278769 -9.5625 10.1875 C-8.47731863 4.11048431 -6.16486524 1.07640504 0 0 Z " fill="#EC282F" transform="translate(45.9375,36.3125)"/>
<path d="M0 0 C3.98444521 2.06600863 6.62808993 4.20899844 9 8 C9.90014358 12.55654078 10.05077796 17.10661707 7.7578125 21.23828125 C4.75434509 24.84692493 2.55499936 26.69216875 -2.26953125 27.2734375 C-9.98442334 27.58155915 -9.98442334 27.58155915 -13.5 24.8125 C-17.42970451 20.39158242 -18.48588194 16.98032868 -18.31640625 10.9921875 C-17.62352378 6.62959414 -15.05762106 3.90653233 -11.8125 1.125 C-7.80225661 -0.47909736 -4.25954636 -0.6836309 0 0 Z M-12 6.5625 C-14.33913408 10.58288671 -14.81591827 12.43085767 -14 17 C-12.24009686 20.59524336 -12.24009686 20.59524336 -9 23 C-5.82356481 23.80416081 -3.18375854 23.74844233 0 23 C3.20879247 20.96994762 4.62927537 19.57700553 5.5078125 15.83984375 C5.85371888 11.33554105 5.42003298 9.5145404 2.5 5.9375 C-2.55000986 2.52307253 -7.26335596 2.51661655 -12 6.5625 Z " fill="#E7CAD1" transform="translate(51,33)"/>
<path d="M0 0 C0.0990914 4.05664947 0.17157106 8.1128277 0.21972656 12.17041016 C0.23980642 13.5497668 0.26707666 14.92903869 0.30175781 16.30810547 C0.35042817 18.29356979 0.37086418 20.27966254 0.390625 22.265625 C0.41157227 23.45961914 0.43251953 24.65361328 0.45410156 25.88378906 C-0.08373537 29.57462274 -1.13548192 30.7103679 -4 33 C-10.75 31.25 -10.75 31.25 -13 29 C-13.4375 26.75 -13.4375 26.75 -13 24 C-12.175 23.13375 -11.35 22.2675 -10.5 21.375 C-7.18939524 17.78383551 -7.55594785 14.27127823 -7.7265625 9.5859375 C-7.91840981 7.03399326 -7.91840981 7.03399326 -8.6484375 4.7890625 C-8.76445313 4.19867188 -8.88046875 3.60828125 -9 3 C-6.40198864 0.40198864 -3.67135617 0 0 0 Z " fill="#ED282F" transform="translate(67,34)"/>
<path d="M0 0 C2.07199035 0.00315335 4.14254213 -0.02029219 6.21435547 -0.0456543 C8.18855469 -0.04662109 8.18855469 -0.04662109 10.20263672 -0.04760742 C11.40259277 -0.05058838 12.60254883 -0.05356934 13.83886719 -0.05664062 C17.54905315 0.35306492 19.99704437 1.46277572 23.21044922 3.31567383 C22.55044922 3.64567383 21.89044922 3.97567383 21.21044922 4.31567383 C19.08544922 3.37817383 19.08544922 3.37817383 17.21044922 2.31567383 C17.21044922 2.97567383 17.21044922 3.63567383 17.21044922 4.31567383 C16.36337402 4.3145459 15.51629883 4.31341797 14.64355469 4.31225586 C11.47827284 4.32222457 8.31470833 4.35892081 5.14990234 4.41333008 C3.78444169 4.43141565 2.41879913 4.43907207 1.05322266 4.43579102 C-7.78766732 4.14069254 -7.78766732 4.14069254 -15.66455078 7.47192383 C-19.52458396 12.50995078 -18.67662539 19.67148248 -18.66455078 25.69067383 C-18.68517578 26.99907227 -18.70580078 28.3074707 -18.72705078 29.65551758 C-18.77406814 32.87620691 -18.79399875 36.09471203 -18.78955078 39.31567383 C-19.11955078 39.31567383 -19.44955078 39.31567383 -19.78955078 39.31567383 C-20.20087233 35.01302892 -20.57599942 30.70915999 -20.91870117 26.40063477 C-21.04011302 24.93722596 -21.17117123 23.4745828 -21.31225586 22.01293945 C-21.51407835 19.9042176 -21.68036546 17.79512128 -21.84033203 15.68286133 C-21.95030518 14.41555176 -22.06027832 13.14824219 -22.17358398 11.8425293 C-21.65052004 7.03885369 -20.23339203 5.65636207 -16.78955078 2.31567383 C-12.0278261 -1.09917004 -5.60121183 -0.01786354 0 0 Z " fill="#EBE1F0" transform="translate(43.78955078125,20.684326171875)"/>
<path d="M0 0 C0.13539281 2.89740622 0.23426829 5.78845621 0.3125 8.6875 C0.3753418 9.91243164 0.3753418 9.91243164 0.43945312 11.16210938 C0.52968141 15.61938664 0.46661915 17.40444662 -2.375 21.03125 C-4.73808168 22.80356126 -6.10448544 23.67827616 -9 24 C-10.2263757 21.54724859 -10.11415314 19.9494219 -10.09765625 17.2109375 C-10.09443359 16.26992188 -10.09121094 15.32890625 -10.08789062 14.359375 C-10.07951172 13.37453125 -10.07113281 12.3896875 -10.0625 11.375 C-10.05798828 10.38242187 -10.05347656 9.38984375 -10.04882812 8.3671875 C-10.03702145 5.9113984 -10.020554 3.45572896 -10 1 C-8.5209084 0.83266843 -7.04172444 0.66615314 -5.5625 0.5 C-4.32693359 0.36078125 -4.32693359 0.36078125 -3.06640625 0.21875 C-1 0 -1 0 0 0 Z " fill="#FE3B2D" transform="translate(21,45)"/>
<path d="M0 0 C1.01151878 -0.00786278 1.01151878 -0.00786278 2.04347229 -0.0158844 C3.46817652 -0.02230064 4.89293376 -0.02097264 6.31762695 -0.01245117 C8.49331447 -0.00394765 10.66636928 -0.03268967 12.84179688 -0.06445312 C14.2278638 -0.06606552 15.61393536 -0.06548687 17 -0.0625 C18.25868896 -0.06435303 19.51737793 -0.06620605 20.81420898 -0.06811523 C24.57803718 0.51252188 25.74151385 1.49606325 28.06640625 4.43359375 C27.40640625 5.42359375 26.74640625 6.41359375 26.06640625 7.43359375 C25.57140625 5.94859375 25.57140625 5.94859375 25.06640625 4.43359375 C24.46828125 4.59859375 23.87015625 4.76359375 23.25390625 4.93359375 C20.25784097 5.61840867 17.46327663 5.41821106 14.390625 5.33984375 C10.08144643 5.33984375 6.08191697 6.04070535 1.87890625 6.93359375 C-2.4208639 7.83157021 -6.51532334 8.63949373 -10.93359375 8.43359375 C-10.59056621 5.89518995 -10.27187474 3.93383282 -8.82397461 1.79272461 C-5.95360067 -0.27099381 -3.49887061 0.02712303 0 0 Z " fill="#9C218F" transform="translate(37.93359375,25.56640625)"/>
<path d="M0 0 C0.33 0.66 0.66 1.32 1 2 C3.64 2 6.28 2 9 2 C10.17794853 5.53384559 10.13264317 8.40277553 10.125 12.125 C10.12757812 13.38570312 10.13015625 14.64640625 10.1328125 15.9453125 C10 19 10 19 9 20 C6.03 20 3.06 20 0 20 C0 13.4 0 6.8 0 0 Z " fill="#E23AB8" transform="translate(11,26)"/>
<path d="M0 0 C7.22680173 0.09210866 14.45326226 0.19939246 21.6796875 0.31738281 C24.13959602 0.35573762 26.59956187 0.39057884 29.05957031 0.421875 C32.58940163 0.46738451 36.11883595 0.52540198 39.6484375 0.5859375 C40.75367767 0.59748871 41.85891785 0.60903992 42.99765015 0.62094116 C44.01855743 0.64081085 45.03946472 0.66068054 46.09130859 0.68115234 C46.99287689 0.69447601 47.89444519 0.70779968 48.82333374 0.7215271 C51 1 51 1 53 3 C52.44014404 2.99476318 51.88028809 2.98952637 51.3034668 2.98413086 C48.76482263 2.96333309 46.22619641 2.95033096 43.6875 2.9375 C42.80642578 2.92912109 41.92535156 2.92074219 41.01757812 2.91210938 C40.17001953 2.90888672 39.32246094 2.90566406 38.44921875 2.90234375 C37.66893311 2.89710693 36.88864746 2.89187012 36.0847168 2.88647461 C33.8038445 2.91862137 33.8038445 2.91862137 31 4 C28.62874811 4.08162377 26.25546714 4.1082775 23.8828125 4.10546875 C22.45701611 4.11892434 21.03123381 4.13394742 19.60546875 4.15039062 C17.36457366 4.17321683 15.12527349 4.18750152 12.88427734 4.17504883 C10.71596625 4.16621125 8.55079785 4.19516634 6.3828125 4.23046875 C5.08746582 4.23457764 3.79211914 4.23868652 2.45751953 4.24291992 C-2.31494139 5.28792778 -3.28048814 7.02405237 -6 11 C-7.27852287 13.21587348 -7.27852287 13.21587348 -8 15 C-8.33 14.34 -8.66 13.68 -9 13 C-7.56576598 9.20349818 -5.94482057 6.75140292 -2.8125 4.25 C-1.884375 3.5075 -0.95625 2.765 0 2 C0 1.34 0 0.68 0 0 Z " fill="#CFBAFE" transform="translate(20,10)"/>
<path d="M0 0 C-0.33 0.99 -0.66 1.98 -1 3 C-4.10414702 3.02903577 -7.20825909 3.0468107 -10.3125 3.0625 C-11.63411133 3.07506836 -11.63411133 3.07506836 -12.98242188 3.08789062 C-13.82998047 3.09111328 -14.67753906 3.09433594 -15.55078125 3.09765625 C-16.33106689 3.10289307 -17.11135254 3.10812988 -17.9152832 3.11352539 C-20 3 -20 3 -23 2 C-22.1875 0.0625 -22.1875 0.0625 -21 -2 C-13.64917364 -4.45027545 -7.01229919 -2.78502663 0 0 Z " fill="#F1B929" transform="translate(49,78)"/>
<path d="M0 0 C3.79826956 0.8034801 6.37148634 1.39569741 9.20556641 4.12060547 C11.48256545 7.774337 11.48813036 10.09647122 11.4609375 14.3828125 C11.45956284 15.42693802 11.45956284 15.42693802 11.4581604 16.49215698 C11.45214354 17.95626693 11.43645502 19.42036566 11.41162109 20.88427734 C11.37499779 23.12513509 11.37060281 25.36434222 11.37109375 27.60546875 C11.29560695 38.55658958 11.29560695 38.55658958 9 42 C9.33 31.11 9.66 20.22 10 9 C8.68 9 7.36 9 6 9 C5.23792236 8.18958252 4.47584473 7.37916504 3.69067383 6.54418945 C0.28190572 3.32099987 -1.4248829 3.35202277 -6.05078125 3.29296875 C-6.70958786 3.27784744 -7.36839447 3.26272614 -8.04716492 3.24714661 C-10.135962 3.20441434 -12.2233102 3.19544735 -14.3125 3.1875 C-15.73506417 3.16434386 -17.15759417 3.13897617 -18.58007812 3.11132812 C-22.05335804 3.04862384 -25.52615613 3.01617216 -29 3 C-29 2.67 -29 2.34 -29 2 C-19.43 2 -9.86 2 0 2 C0 1.34 0 0.68 0 0 Z " fill="#D6BCD5" transform="translate(61,23)"/>
<path d="M0 0 C1.54571278 2.31856917 2.79618552 4.50638429 4 7 C2.02 7.66 0.04 8.32 -2 9 C-2.33 10.98 -2.66 12.96 -3 15 C-0.36 16.65 2.28 18.3 5 20 C1 21 1 21 -1.4375 19.9375 C-5.63214575 16.76593858 -8.5627247 13.81637434 -9.8125 8.625 C-9.874375 7.75875 -9.93625 6.8925 -10 6 C-7.525 6.495 -7.525 6.495 -5 7 C-4.731875 6.360625 -4.46375 5.72125 -4.1875 5.0625 C-3 3 -3 3 0 2 C0 1.34 0 0.68 0 0 Z " fill="#FD5D29" transform="translate(21,61)"/>
<path d="M0 0 C0.10477512 5.78591511 -0.00749455 11.29309366 -1 17 C-1.66 17 -2.32 17 -3 17 C-3 16.34 -3 15.68 -3 15 C-4.32 15 -5.64 15 -7 15 C-7.38873828 13.04434742 -7.76060833 11.08533496 -8.125 9.125 C-8.33382812 8.03445312 -8.54265625 6.94390625 -8.7578125 5.8203125 C-8.83773437 4.88960937 -8.91765625 3.95890625 -9 3 C-6.40198864 0.40198864 -3.67135617 0 0 0 Z " fill="#E32465" transform="translate(67,34)"/>
<path d="M0 0 C0.66 4.29 1.32 8.58 2 13 C0.35 13.33 -1.3 13.66 -3 14 C-4.32 14.99 -5.64 15.98 -7 17 C-7 11.72 -7 6.44 -7 1 C-1 0 -1 0 0 0 Z " fill="#F22B29" transform="translate(33,42)"/>
<path d="M0 0 C2.05078125 0.03255208 4.1015625 0.06510417 6.15234375 0.09765625 C7.51858049 2.83012973 7.28076975 5.07964527 7.15234375 8.09765625 C6.82234375 8.42765625 6.49234375 8.75765625 6.15234375 9.09765625 C8.79234375 9.42765625 11.43234375 9.75765625 14.15234375 10.09765625 C14.15234375 10.42765625 14.15234375 10.75765625 14.15234375 11.09765625 C0.29234375 11.09765625 -13.56765625 11.09765625 -27.84765625 11.09765625 C-27.84765625 10.76765625 -27.84765625 10.43765625 -27.84765625 10.09765625 C-27.00992676 10.0726001 -26.17219727 10.04754395 -25.30908203 10.02172852 C-22.20413369 9.92665268 -19.09935444 9.827416 -15.99462891 9.7253418 C-13.98870818 9.66067374 -11.98263397 9.60082519 -9.9765625 9.54101562 C-8.09130859 9.47817383 -8.09130859 9.47817383 -6.16796875 9.4140625 C-5.00539551 9.37740479 -3.84282227 9.34074707 -2.64501953 9.30297852 C0.10589385 9.27943966 0.10589385 9.27943966 2.15234375 8.09765625 C0.85934681 5.21327846 -0.50706988 3.22546204 -2.84765625 1.09765625 C-1.84765625 0.09765625 -1.84765625 0.09765625 0 0 Z " fill="#BA6244" transform="translate(53.84765625,71.90234375)"/>
<path d="M0 0 C3.5625 0.25 3.5625 0.25 7 1 C8.43509221 3.87018441 8.11158506 6.33543723 8.09765625 9.5390625 C8.09443359 10.84101562 8.09121094 12.14296875 8.08789062 13.484375 C8.07953466 14.86458399 8.07106971 16.24479232 8.0625 17.625 C8.05748501 19.01301926 8.0529221 20.40104022 8.04882812 21.7890625 C8.03700976 25.19275132 8.02053434 28.59635439 8 32 C7.67 32 7.34 32 7 32 C6.67 23.42 6.34 14.84 6 6 C2.24364431 6.75127114 0.16789693 7.24005726 -3 9 C-5.01920337 7.69593116 -7.01924973 6.36176581 -9 5 C-9 4.67 -9 4.34 -9 4 C-7.88625 3.71125 -6.7725 3.4225 -5.625 3.125 C-1.99708908 2.30758671 -1.99708908 2.30758671 0 0 Z " fill="#D54C86" transform="translate(60,29)"/>
<path d="M0 0 C0.70189453 0.01353516 1.40378906 0.02707031 2.12695312 0.04101562 C3.85579829 0.07629818 5.58424765 0.13010417 7.3125 0.1875 C6.29296875 2.63671875 6.29296875 2.63671875 4.3125 5.1875 C1.55929275 5.73212351 -0.6189081 5.97683956 -3.375 6 C-4.4278418 6.03770508 -4.4278418 6.03770508 -5.50195312 6.07617188 C-7.22986781 6.13494448 -8.9587443 6.1641097 -10.6875 6.1875 C-10.6875 3.1875 -10.6875 3.1875 -9.66796875 1.51171875 C-6.62955251 -0.51988501 -3.51868442 -0.12813137 0 0 Z " fill="#857AFE" transform="translate(28.6875,13.8125)"/>
<path d="M0 0 C0.33 1.32 0.66 2.64 1 4 C-0.328125 6.10546875 -0.328125 6.10546875 -2.25 8.1875 C-3.18585937 9.22970703 -3.18585937 9.22970703 -4.140625 10.29296875 C-6 12 -6 12 -9 13 C-9 9.04 -9 5.08 -9 1 C-4.545 0.505 -4.545 0.505 0 0 Z " fill="#FC344D" transform="translate(20,45)"/>
<path d="M0 0 C0.82741699 0.01047363 1.65483398 0.02094727 2.50732422 0.03173828 C3.40322266 0.03818359 4.29912109 0.04462891 5.22216797 0.05126953 C6.62789062 0.07640625 6.62789062 0.07640625 8.06201172 0.10205078 C9.00689453 0.11107422 9.95177734 0.12009766 10.92529297 0.12939453 C13.26278464 0.15300556 15.59977295 0.18593562 17.93701172 0.22705078 C16.93701172 2.22705078 16.93701172 2.22705078 14.95654297 3.28173828 C10.8823225 4.55723809 6.86223273 4.94399872 2.62451172 5.35205078 C1.78855469 5.43841797 0.95259766 5.52478516 0.09130859 5.61376953 C-1.95946458 5.8247062 -4.01114731 6.02676724 -6.06298828 6.22705078 C-3.32795834 0.36627234 -3.32795834 0.36627234 0 0 Z " fill="#89269C" transform="translate(33.06298828125,25.77294921875)"/>
<path d="M0 0 C0.33 0.66 0.66 1.32 1 2 C3.64 2 6.28 2 9 2 C9.8125 4.1875 9.8125 4.1875 10 7 C7.47494414 10.08617938 5.80132605 11.73289132 2 13 C-0.24828052 8.50343896 -0.16682272 4.92127034 0 0 Z " fill="#CC47DB" transform="translate(11,26)"/>
<path d="M0 0 C0.99 0.103125 1.98 0.20625 3 0.3125 C3.66 1.3025 4.32 2.2925 5 3.3125 C4.01 3.3125 3.02 3.3125 2 3.3125 C2 4.3025 2 5.2925 2 6.3125 C3.32 6.6425 4.64 6.9725 6 7.3125 C4.02 7.9725 2.04 8.6325 0 9.3125 C0.33 10.3025 0.66 11.2925 1 12.3125 C-1.91517292 11.23848892 -3.77810176 10.53439824 -6 8.3125 C-5.59559579 3.45964946 -5.34228525 0.55648805 0 0 Z " fill="#F87628" transform="translate(23,67.6875)"/>
<path d="M0 0 C-0.66 0.66 -1.32 1.32 -2 2 C-2.16677282 5.58343976 -2.16677282 5.58343976 -2 9 C-0.39566191 8.52140759 1.20846416 8.04210442 2.8125 7.5625 C3.70582031 7.29566406 4.59914063 7.02882813 5.51953125 6.75390625 C7.35473055 6.19612127 9.18033726 5.60655425 11 5 C10.08765983 7.28085043 9.41905836 8.70988267 7.375 10.125 C4.0999202 11.33160835 1.22822378 11.18941155 -2.25 11.125 C-3.51328125 11.10695313 -4.7765625 11.08890625 -6.078125 11.0703125 C-7.04234375 11.04710938 -8.0065625 11.02390625 -9 11 C-8.34 10.34 -7.68 9.68 -7 9 C-6.60235737 7.01178687 -6.26224651 5.01055661 -6 3 C-7.98 3 -9.96 3 -12 3 C-12 2.67 -12 2.34 -12 2 C-10.37787941 1.47026689 -8.75218416 0.95146893 -7.125 0.4375 C-6.22007813 0.14746094 -5.31515625 -0.14257812 -4.3828125 -0.44140625 C-2 -1 -2 -1 0 0 Z " fill="#E63A26" transform="translate(67,71)"/>
<path d="M0 0 C3.33936804 0.06703111 5.15064329 0.7144478 7.75 2.8125 C10.25 5.4375 10.25 5.4375 10.25 7.4375 C9.73953125 7.27378906 9.2290625 7.11007813 8.703125 6.94140625 C5.43708172 6.27051519 2.3313253 6.3441544 -1 6.375 C-2.89492188 6.38853516 -2.89492188 6.38853516 -4.828125 6.40234375 C-5.79234375 6.41394531 -6.7565625 6.42554688 -7.75 6.4375 C-5.75922664 2.17155708 -4.9613523 0.57882444 0 0 Z " fill="#BA264D" transform="translate(45.75,36.5625)"/>
<path d="M0 0 C0.70125 -0.01675781 1.4025 -0.03351562 2.125 -0.05078125 C2.74375 0.06910156 3.3625 0.18898437 4 0.3125 C4.66 1.3025 5.32 2.2925 6 3.3125 C8.21932277 3.82026044 8.21932277 3.82026044 10.7890625 3.82421875 C11.73007812 3.85966797 12.67109375 3.89511719 13.640625 3.93164062 C14.62546875 3.95419922 15.6103125 3.97675781 16.625 4 C18.11386719 4.05124023 18.11386719 4.05124023 19.6328125 4.10351562 C22.08842906 4.18615657 24.54368141 4.25525127 27 4.3125 C27 4.6425 27 4.9725 27 5.3125 C22.43762069 5.39969631 17.87545614 5.45295922 13.3125 5.5 C12.01892578 5.52513672 10.72535156 5.55027344 9.39257812 5.57617188 C8.14541016 5.58583984 6.89824219 5.59550781 5.61328125 5.60546875 C3.89298706 5.62903442 3.89298706 5.62903442 2.13793945 5.65307617 C-1.31618585 5.27818278 -3.19295789 4.3057068 -6 2.3125 C-3.67471713 -0.01278287 -3.15334102 0.01738975 0 0 Z " fill="#FA9C53" transform="translate(34,62.6875)"/>
<path d="M0 0 C0.6909375 -0.01224609 1.381875 -0.02449219 2.09375 -0.03710938 C6.78574116 -0.05033867 10.79426929 0.55058772 15.25 2.1875 C17.6875 4.8125 17.6875 4.8125 19.25 7.1875 C18.92 7.8475 18.59 8.5075 18.25 9.1875 C18.0025 8.259375 18.0025 8.259375 17.75 7.3125 C15.79398923 4.54148475 13.8495067 4.29892448 10.63867188 3.56689453 C6.3480682 2.88541476 2.08287152 2.98062888 -2.25 3.0625 C-3.1678125 3.07152344 -4.085625 3.08054687 -5.03125 3.08984375 C-7.27111556 3.11317568 -9.51041183 3.14590765 -11.75 3.1875 C-9.60689008 -1.09871985 -4.20702982 0.00383853 0 0 Z " fill="#E663FA" transform="translate(61.75,11.8125)"/>
<path d="M0 0 C0.33 0 0.66 0 1 0 C2.72797686 8.81097113 2.72797686 8.81097113 0.125 13.0625 C-3.90689212 15.56227311 -7.32634354 15.88799516 -12 16 C-12.33 15.01 -12.66 14.02 -13 13 C-12.38511719 12.84144531 -11.77023438 12.68289062 -11.13671875 12.51953125 C-5.95397095 11.08498436 -5.95397095 11.08498436 -2 7.625 C-1.02824253 5.07413665 -0.38575918 2.70031429 0 0 Z " fill="#EDDDE2" transform="translate(57,44)"/>
<path d="M0 0 C-2 1 -2 1 -4.0625 0.5625 C-9.55622446 -0.48948979 -15.1012616 -1.05501191 -20 2 C-20.33 2.66 -20.66 3.32 -21 4 C-14.4 4.33 -7.8 4.66 -1 5 C-1 5.33 -1 5.66 -1 6 C-4.27066566 6.08706892 -7.54103365 6.14041241 -10.8125 6.1875 C-11.74126953 6.21263672 -12.67003906 6.23777344 -13.62695312 6.26367188 C-14.9659668 6.27817383 -14.9659668 6.27817383 -16.33203125 6.29296875 C-17.15421143 6.3086792 -17.9763916 6.32438965 -18.82348633 6.34057617 C-21.50456255 5.92104714 -22.3869427 5.14498486 -24 3 C-24 2.34 -24 1.68 -24 1 C-17.09049412 -3.73794689 -7.4423334 -3.47863256 0 0 Z " fill="#EBA828" transform="translate(47,76)"/>
<path d="M0 0 C0.3403125 1.175625 0.3403125 1.175625 0.6875 2.375 C1.78125 5.21875 1.78125 5.21875 4.625 6.3125 C5.40875 6.539375 6.1925 6.76625 7 7 C7 7.33 7 7.66 7 8 C4.03 8 1.06 8 -2 8 C-2 7.01 -2 6.02 -2 5 C-2.71027344 4.87882812 -3.42054687 4.75765625 -4.15234375 4.6328125 C-5.07144531 4.46523438 -5.99054687 4.29765625 -6.9375 4.125 C-8.31228516 3.88136719 -8.31228516 3.88136719 -9.71484375 3.6328125 C-10.46894531 3.42398438 -11.22304688 3.21515625 -12 3 C-12.33 2.34 -12.66 1.68 -13 1 C-11.39602723 0.83147753 -9.7918131 0.66525114 -8.1875 0.5 C-7.29417969 0.4071875 -6.40085937 0.314375 -5.48046875 0.21875 C-3 0 -3 0 0 0 Z " fill="#E94528" transform="translate(54,59)"/>
<path d="M0 0 C3.875 1.75 3.875 1.75 5 4 C7.31850007 4.61432869 7.31850007 4.61432869 10 5 C12.75 5.4375 12.75 5.4375 15 6 C15.33 6.66 15.66 7.32 16 8 C15.67 8.66 15.34 9.32 15 10 C11.28400809 10.20086443 10.22791555 10.1519437 7 8 C5.989375 7.525625 4.97875 7.05125 3.9375 6.5625 C1 5 1 5 -1 2 C-0.67 1.34 -0.34 0.68 0 0 Z " fill="#EF5620" transform="translate(37,57)"/>
<path d="M0 0 C2.76239351 1.41488448 4.80363095 2.80363095 7 5 C7.1953125 7.6015625 7.1953125 7.6015625 7.125 10.625 C7.10695313 11.62789062 7.08890625 12.63078125 7.0703125 13.6640625 C7.03550781 14.82035156 7.03550781 14.82035156 7 16 C5.02734375 14.7109375 5.02734375 14.7109375 3 13 C2.855625 11.88625 2.71125 10.7725 2.5625 9.625 C1.87599387 5.20084937 0.35117419 3.83560893 -3 1 C-2.01 0.67 -1.02 0.34 0 0 Z " fill="#DEB3C0" transform="translate(53,36)"/>
<path d="M0 0 C2.51239382 3.76859072 3.12663199 6.26239249 3.0625 10.6875 C3.05347656 11.49574219 3.04445313 12.30398437 3.03515625 13.13671875 C3.02355469 13.75160156 3.01195313 14.36648437 3 15 C2.34 15 1.68 15 1 15 C1 19.29 1 23.58 1 28 C0.67 28 0.34 28 0 28 C0 18.76 0 9.52 0 0 Z " fill="#D6297B" transform="translate(72,32)"/>
<path d="M0 0 C2.05078125 0.03255208 4.1015625 0.06510417 6.15234375 0.09765625 C5.77734375 2.53515625 5.77734375 2.53515625 5.15234375 5.09765625 C2.4435504 6.45205293 0.14301107 6.16267076 -2.84765625 6.09765625 C-2.89037725 4.4315372 -2.88829457 2.7638274 -2.84765625 1.09765625 C-1.84765625 0.09765625 -1.84765625 0.09765625 0 0 Z " fill="#C92A86" transform="translate(28.84765625,36.90234375)"/>
<path d="M0 0 C15.84 0 31.68 0 48 0 C48 0.33 48 0.66 48 1 C32.16 1 16.32 1 0 1 C0 0.67 0 0.34 0 0 Z " fill="#DC9AFE" transform="translate(23,9)"/>
<path d="M0 0 C0.33 0 0.66 0 1 0 C1 15.51 1 31.02 1 47 C0.67 47 0.34 47 0 47 C0 31.49 0 15.98 0 0 Z " fill="#EE5091" transform="translate(9,23)"/>
<path d="M0 0 C4.875 0.875 4.875 0.875 6 2 C8.32817964 2.36760731 10.6618385 2.70241581 13 3 C13 3.99 13 4.98 13 6 C5.79712747 7.46499102 5.79712747 7.46499102 2 5.25 C0 3 0 3 0 0 Z " fill="#EBCFD3" transform="translate(36,53)"/>
<path d="M0 0 C2.02408755 0.09002398 4.04544287 0.24641038 6.0625 0.4375 C7.71958984 0.59025391 7.71958984 0.59025391 9.41015625 0.74609375 C10.26480469 0.82988281 11.11945312 0.91367187 12 1 C11.34 2.98 10.68 4.96 10 7 C9.34 7 8.68 7 8 7 C8 6.01 8 5.02 8 4 C6.8553125 4.2784375 6.8553125 4.2784375 5.6875 4.5625 C3 5 3 5 0 4 C-0.33 3.01 -0.66 2.02 -1 1 C-0.67 0.67 -0.34 0.34 0 0 Z " fill="#B859EF" transform="translate(12,24)"/>
<path d="M0 0 C0.33 0 0.66 0 1 0 C1 14.19 1 28.38 1 43 C0.67 43 0.34 43 0 43 C0 28.81 0 14.62 0 0 Z " fill="#BE2E7D" transform="translate(84,25)"/>
<path d="M0 0 C2.17012128 0.72337376 4.32600947 1.47163348 6.47265625 2.26171875 C6.14265625 2.92171875 5.81265625 3.58171875 5.47265625 4.26171875 C2.83265625 4.26171875 0.19265625 4.26171875 -2.52734375 4.26171875 C-2.85734375 3.27171875 -3.18734375 2.28171875 -3.52734375 1.26171875 C-6.49734375 1.26171875 -9.46734375 1.26171875 -12.52734375 1.26171875 C-12.52734375 0.60171875 -12.52734375 -0.05828125 -12.52734375 -0.73828125 C-8.69209594 -2.65590515 -3.97090486 -1.15997066 0 0 Z " fill="#F77624" transform="translate(41.52734375,62.73828125)"/>
<path d="M0 0 C3.51249748 0.54957443 5.68484858 2.01524873 8.296875 4.359375 C8.296875 5.349375 8.296875 6.339375 8.296875 7.359375 C7.61238281 6.70453125 6.92789063 6.0496875 6.22265625 5.375 C2.6542485 2.91665768 0.76233644 2.93652807 -3.515625 3.109375 C-4.67707031 3.14546875 -5.83851562 3.1815625 -7.03515625 3.21875 C-7.91558594 3.26515625 -8.79601563 3.3115625 -9.703125 3.359375 C-6.72392817 -0.20620343 -4.45054845 -0.14544276 0 0 Z " fill="#EBDCE8" transform="translate(48.703125,32.640625)"/>
<path d="M0 0 C-3.25808543 1.85953078 -6.24462525 2.53823806 -9.9375 3.125 C-10.95714844 3.29257812 -11.97679687 3.46015625 -13.02734375 3.6328125 C-15.72592382 3.96614565 -18.28538935 4.06998996 -21 4 C-21 3.34 -21 2.68 -21 2 C-14.11997829 -0.62096065 -7.27823961 -0.18170362 0 0 Z " fill="#A129A2" transform="translate(48,30)"/>
<path d="M0 0 C0.33 0.66 0.66 1.32 1 2 C5.62 2 10.24 2 15 2 C10 6 10 6 7.32421875 6.171875 C6.01904297 5.96304687 6.01904297 5.96304687 4.6875 5.75 C3.80449219 5.62109375 2.92148437 5.4921875 2.01171875 5.359375 C1.34785156 5.24078125 0.68398437 5.1221875 0 5 C-0.5625 3.0625 -0.5625 3.0625 -1 1 C-0.67 0.67 -0.34 0.34 0 0 Z " fill="#A86AF7" transform="translate(14,20)"/>
<path d="M0 0 C13.2 0 26.4 0 40 0 C40 0.33 40 0.66 40 1 C26.8 1 13.6 1 0 1 C0 0.67 0 0.34 0 0 Z " fill="#C8793D" transform="translate(27,84)"/>
<path d="M0 0 C2.77227178 0.14339337 5.00905444 0.35039742 7.625 1.1875 C7.625 1.8475 7.625 2.5075 7.625 3.1875 C4.49793041 4.7510348 1.04517557 4.58708487 -2.375 4.1875 C-3.365 3.5275 -4.355 2.8675 -5.375 2.1875 C-3.375 0.1875 -3.375 0.1875 0 0 Z " fill="#F2CE2E" transform="translate(35.375,76.8125)"/>
<path d="M0 0 C0.33 1.32 0.66 2.64 1 4 C0 5 0 5 -2.06640625 5.09765625 C-2.89011719 5.08605469 -3.71382812 5.07445312 -4.5625 5.0625 C-5.38878906 5.05347656 -6.21507812 5.04445313 -7.06640625 5.03515625 C-7.70449219 5.02355469 -8.34257812 5.01195312 -9 5 C-9 3.68 -9 2.36 -9 1 C-4.545 0.505 -4.545 0.505 0 0 Z " fill="#F13591" transform="translate(20,41)"/>
<path d="M0 0 C3.63 0 7.26 0 11 0 C7.3112228 3.6887772 5.2556258 3.94987498 0.1875 4.0625 C-0.534375 4.041875 -1.25625 4.02125 -2 4 C-1.34 2.68 -0.68 1.36 0 0 Z " fill="#768CFE" transform="translate(21,14)"/>
<path d="M0 0 C0 0.66 0 1.32 0 2 C-0.79664063 1.75443359 -0.79664063 1.75443359 -1.609375 1.50390625 C-4.53876764 0.88643623 -7.25822936 0.90498075 -10.25 0.9375 C-11.32765625 0.94652344 -12.4053125 0.95554688 -13.515625 0.96484375 C-14.74539062 0.98224609 -14.74539062 0.98224609 -16 1 C-15.67 0.01 -15.34 -0.98 -15 -2 C-13.25285767 -2.25002209 -11.50200859 -2.47423194 -9.75 -2.6875 C-8.77546875 -2.81511719 -7.8009375 -2.94273438 -6.796875 -3.07421875 C-3.49834337 -2.98668788 -2.30594277 -2.31143311 0 0 Z " fill="#CB1D40" transform="translate(56,42)"/>
<path d="M0 0 C1.0725 0.103125 2.145 0.20625 3.25 0.3125 C2.6725 0.580625 2.095 0.84875 1.5 1.125 C-0.7825868 2.32969859 -2.7237942 3.72048115 -4.75 5.3125 C-2.44 5.6425 -0.13 5.9725 2.25 6.3125 C2.25 6.6425 2.25 6.9725 2.25 7.3125 C-2.37 7.3125 -6.99 7.3125 -11.75 7.3125 C-10.43 6.6525 -9.11 5.9925 -7.75 5.3125 C-7.151875 4.44625 -6.55375 3.58 -5.9375 2.6875 C-3.75 0.3125 -3.75 0.3125 0 0 Z " fill="#B463FA" transform="translate(45.75,13.6875)"/>
<path d="M0 0 C2.64 0.33 5.28 0.66 8 1 C4.25 4 4.25 4 2 4 C2.33 4.99 2.66 5.98 3 7 C1.68 6.34 0.36 5.68 -1 5 C-0.67 3.35 -0.34 1.7 0 0 Z " fill="#F8982A" transform="translate(21,73)"/>
<path d="M0 0 C0 0.99 0 1.98 0 3 C-3.3 3 -6.6 3 -10 3 C-9 0 -9 0 -7.25 -1.3125 C-4.22513532 -2.23676421 -2.76271632 -1.38135816 0 0 Z " fill="#F73E20" transform="translate(37,56)"/>
<path d="M0 0 C0.33 0.66 0.66 1.32 1 2 C-0.10408203 2.02126953 -0.10408203 2.02126953 -1.23046875 2.04296875 C-7.83191687 2.1761169 -7.83191687 2.1761169 -13.1875 5.5625 C-13.785625 6.366875 -14.38375 7.17125 -15 8 C-15.33 7.01 -15.66 6.02 -16 5 C-11.58448688 -1.09036292 -7.15036487 -0.56351387 0 0 Z " fill="#DCC8D2" transform="translate(52,35)"/>
<path d="M0 0 C2.30004954 2.20335076 4.26558323 4.52367168 6.1875 7.0625 C6.71730469 7.75472656 7.24710937 8.44695313 7.79296875 9.16015625 C9 11 9 11 9 13 C8.01 13 7.02 13 6 13 C6 12.34 6 11.68 6 11 C5.34 11 4.68 11 4 11 C3.32880451 9.5437455 2.66318193 8.08492133 2 6.625 C1.62875 5.81289063 1.2575 5.00078125 0.875 4.1640625 C0 2 0 2 0 0 Z " fill="#E31BB1" transform="translate(70,26)"/>
<path d="M0 0 C3.89917223 0.57765515 6.01191265 2.53482794 9 5 C10.31138904 5.70885894 11.63777017 6.39456452 13 7 C11.3125 7.6875 11.3125 7.6875 9 8 C4.90048741 6.15521934 2.62352368 3.59519912 0 0 Z " fill="#DD602A" transform="translate(13,74)"/>
<path d="M0 0 C0 0.99 0 1.98 0 3 C-2.64 3.99 -5.28 4.98 -8 6 C-8.33 4.35 -8.66 2.7 -9 1 C-4.545 0.505 -4.545 0.505 0 0 Z " fill="#F9336D" transform="translate(20,45)"/>
<path d="M0 0 C0.33 0.99 0.66 1.98 1 3 C-3.51617599 3.07654536 -7.59085217 3.10228696 -12 2 C-8.09971775 -0.60018816 -4.52565431 -0.15085514 0 0 Z " fill="#B72095" transform="translate(56,30)"/>
<path d="M0 0 C1.37478516 0.01740234 1.37478516 0.01740234 2.77734375 0.03515625 C3.69644531 0.04417969 4.61554687 0.05320312 5.5625 0.0625 C6.27277344 0.07410156 6.98304687 0.08570312 7.71484375 0.09765625 C7.38484375 0.75765625 7.05484375 1.41765625 6.71484375 2.09765625 C4.5 2.6953125 4.5 2.6953125 1.77734375 3.16015625 C-1.87287834 3.76571092 -1.87287834 3.76571092 -5.28515625 5.09765625 C-2.87806166 0.12299409 -2.87806166 0.12299409 0 0 Z " fill="#7B2CA4" transform="translate(33.28515625,25.90234375)"/>
<path d="M0 0 C2.875 -0.1875 2.875 -0.1875 6 0 C6.66 0.99 7.32 1.98 8 3 C7.01 4.485 7.01 4.485 6 6 C5.67 5.01 5.34 4.02 5 3 C4.401875 3.165 3.80375 3.33 3.1875 3.5 C1 4 1 4 -2 4 C-1.34 2.68 -0.68 1.36 0 0 Z " fill="#AD268A" transform="translate(58,27)"/>
<path d="M0 0 C1.50433594 0.01353516 1.50433594 0.01353516 3.0390625 0.02734375 C3.80992188 0.03894531 4.58078125 0.05054688 5.375 0.0625 C4.055 1.3825 2.735 2.7025 1.375 4.0625 C1.375 3.4025 1.375 2.7425 1.375 2.0625 C-3.08 2.5575 -3.08 2.5575 -7.625 3.0625 C-7.625 2.4025 -7.625 1.7425 -7.625 1.0625 C-4.98041621 -0.25979189 -2.94738699 -0.03427194 0 0 Z " fill="#C13197" transform="translate(33.625,34.9375)"/>
<path d="M0 0 C-3.465 2.97 -3.465 2.97 -7 6 C-7 4.02 -7 2.04 -7 0 C-3.98968256 -0.93423645 -3.13349732 -1.04449911 0 0 Z " fill="#DC1F33" transform="translate(45,43)"/>
<path d="M0 0 C2.475 0.495 2.475 0.495 5 1 C4.67 2.98 4.34 4.96 4 7 C3.01 6.67 2.02 6.34 1 6 C0.67 4.02 0.34 2.04 0 0 Z " fill="#F6522F" transform="translate(11,67)"/>
<path d="M0 0 C0 1.98 0 3.96 0 6 C-0.66 5.34 -1.32 4.68 -2 4 C-4.58354218 3.83312552 -4.58354218 3.83312552 -7 4 C-7 3.01 -7 2.02 -7 1 C-1.125 0 -1.125 0 0 0 Z " fill="#E22951" transform="translate(33,42)"/>
<path d="M0 0 C0.33 0.99 0.66 1.98 1 3 C-1.70879335 4.35439668 -4.00933268 4.06501451 -7 4 C-7 3.01 -7 2.02 -7 1 C-3.535 0.505 -3.535 0.505 0 0 Z " fill="#D5286E" transform="translate(33,39)"/>
<path d="M0 0 C0 3.3 0 6.6 0 10 C-0.33 10 -0.66 10 -1 10 C-1.33 8.02 -1.66 6.04 -2 4 C-2.639375 3.87625 -3.27875 3.7525 -3.9375 3.625 C-4.618125 3.41875 -5.29875 3.2125 -6 3 C-6.33 2.34 -6.66 1.68 -7 1 C-1.125 0 -1.125 0 0 0 Z " fill="#CA105D" transform="translate(67,34)"/>
<path d="M0 0 C2.64803309 2.16023752 3.41325694 3.70254607 4.375 6.9375 C3.385 6.2775 2.395 5.6175 1.375 4.9375 C1.375 4.2775 1.375 3.6175 1.375 2.9375 C-1.265 2.2775 -3.905 1.6175 -6.625 0.9375 C-3.91903781 -0.96669561 -3.14807385 -1.27422037 0 0 Z " fill="#E57DEC" transform="translate(76.625,14.0625)"/>
<path d="M0 0 C0.99 1.32 1.98 2.64 3 4 C2.01 4.33 1.02 4.66 0 5 C-0.66 4.34 -1.32 3.68 -2 3 C-1.34 2.01 -0.68 1.02 0 0 Z M-4 4 C-3.34 4.33 -2.68 4.66 -2 5 C-2.99 6.98 -3.98 8.96 -5 11 C-5.625 9.1875 -5.625 9.1875 -6 7 C-5.34 6.01 -4.68 5.02 -4 4 Z " fill="#F96A2A" transform="translate(22,64)"/>
<path d="M0 0 C1.98 0.495 1.98 0.495 4 1 C4 2.32 4 3.64 4 5 C2.35 4.67 0.7 4.34 -1 4 C-0.67 2.68 -0.34 1.36 0 0 Z " fill="#E1CFDE" transform="translate(60,29)"/>
<path d="M0 0 C2.25 0.25 2.25 0.25 4 1 C2.25 3.5 2.25 3.5 0 6 C-1.32 6 -2.64 6 -4 6 C-4 4 -4 4 -2.25 1.8125 C-1.5075 1.214375 -0.765 0.61625 0 0 Z " fill="#A370FD" transform="translate(38,14)"/>
<path d="M0 0 C2.625 -0.1875 2.625 -0.1875 5 0 C5 0.66 5 1.32 5 2 C4.38125 2.0825 3.7625 2.165 3.125 2.25 C0.81562433 2.81258459 0.81562433 2.81258459 -0.25 5.0625 C-0.4975 5.701875 -0.745 6.34125 -1 7 C-1.625 5.1875 -1.625 5.1875 -2 3 C-1.34 2.01 -0.68 1.02 0 0 Z " fill="#FA8429" transform="translate(20,71)"/>
<path d="M0 0 C-1.28519565 2.86697492 -2.57129254 4.97607712 -5 7 C-5.66 7 -6.32 7 -7 7 C-7 4 -7 4 -5.1875 1.8125 C-3 0 -3 0 0 0 Z " fill="#E6CCD1" transform="translate(59,52)"/>
<path d="M0 0 C0.66 0 1.32 0 2 0 C2 3.63 2 7.26 2 11 C-0.7865517 8.2134483 -0.65662895 5.84575573 -1 2 C-0.67 1.34 -0.34 0.68 0 0 Z " fill="#E1C7D1" transform="translate(58,41)"/>
<path d="M0 0 C0.66 0.99 1.32 1.98 2 3 C1.67 3.99 1.34 4.98 1 6 C-2.465 4.02 -2.465 4.02 -6 2 C-6 1.67 -6 1.34 -6 1 C-4.02 0.67 -2.04 0.34 0 0 Z " fill="#CD2989" transform="translate(57,32)"/>
<path d="M0 0 C2.3431213 0.25561323 4.67843403 0.59270772 7 1 C7.33 1.66 7.66 2.32 8 3 C5.03 3 2.06 3 -1 3 C-0.67 2.01 -0.34 1.02 0 0 Z " fill="#F3411C" transform="translate(53,64)"/>
<path d="M0 0 C2.16874252 0.50603992 3.99967627 0.99983813 6 2 C5.67 2.99 5.34 3.98 5 5 C3.68 4.67 2.36 4.34 1 4 C1.33 3.34 1.66 2.68 2 2 C1.34 2 0.68 2 0 2 C0 1.34 0 0.68 0 0 Z " fill="#F09A26" transform="translate(47,76)"/>
<path d="M0 0 C1.65 0 3.3 0 5 0 C5 1.98 5 3.96 5 6 C4.01 6 3.02 6 2 6 C2.33 4.68 2.66 3.36 3 2 C2.01 1.67 1.02 1.34 0 1 C0 0.67 0 0.34 0 0 Z " fill="#ED5120" transform="translate(56,74)"/>
<path d="M0 0 C2.31 0 4.62 0 7 0 C7 0.99 7 1.98 7 3 C4.36 3.33 1.72 3.66 -1 4 C-0.67 2.68 -0.34 1.36 0 0 Z " fill="#EFC3C4" transform="translate(42,56)"/>
<path d="M0 0 C0.66 0 1.32 0 2 0 C-0.70491803 6.85245902 -0.70491803 6.85245902 -3 8 C-2.45276317 4.62537285 -1.9451 2.91765 0 0 Z " fill="#ECDBE5" transform="translate(37,36)"/>
<path d="M0 0 C-1.1875 1.5 -1.1875 1.5 -3 3 C-5.6875 3.1875 -5.6875 3.1875 -8 3 C-8 2.34 -8 1.68 -8 1 C-5.07175348 0.02391783 -3.04386724 -0.08226668 0 0 Z " fill="#7081FE" transform="translate(27,15)"/>
<path d="M0 0 C4 1 4 1 4 1 Z " fill="#D03120" transform="translate(68,83)"/>
<path d="M0 0 C4 1 4 1 4 1 Z " fill="#E3701A" transform="translate(22,83)"/>
<path d="M0 0 C1 4 1 4 1 4 Z " fill="#E365D7" transform="translate(83,21)"/>
<path d="" fill="#C59FFD" transform="translate(0,0)"/>
<path d="M0 0 C2 1 2 1 2 1 Z " fill="#D53724" transform="translate(72,82)"/>
<path d="M0 0 C2 1 2 1 2 1 Z " fill="#D86313" transform="translate(20,82)"/>
<path d="M0 0 C2 1 2 1 2 1 Z " fill="#D52428" transform="translate(74,81)"/>
<path d="M0 0 C2 1 2 1 2 1 Z " fill="#E23E17" transform="translate(15,79)"/>
<path d="" fill="#E42F22" transform="translate(0,0)"/>
<path d="" fill="#D53249" transform="translate(0,0)"/>
<path d="" fill="#F24E1F" transform="translate(0,0)"/>
<path d="" fill="#E93047" transform="translate(0,0)"/>
<path d="" fill="#F04225" transform="translate(0,0)"/>
<path d="" fill="#F46BF7" transform="translate(0,0)"/>
<path d="M0 0 C2 1 2 1 2 1 Z " fill="#F699FB" transform="translate(75,12)"/>
<path d="M0 0 C2 1 2 1 2 1 Z " fill="#F664F9" transform="translate(73,11)"/>
<path d="M0 0 C2 1 2 1 2 1 Z " fill="#F656FB" transform="translate(71,10)"/>
<path d="" fill="#E15837" transform="translate(0,0)"/>
<path d="" fill="#DC373A" transform="translate(0,0)"/>
<path d="" fill="#DC4920" transform="translate(0,0)"/>
<path d="" fill="#D1343F" transform="translate(0,0)"/>
<path d="" fill="#D42B3B" transform="translate(0,0)"/>
<path d="" fill="#D36B55" transform="translate(0,0)"/>
<path d="" fill="#D9323F" transform="translate(0,0)"/>
<path d="" fill="#DD3742" transform="translate(0,0)"/>
<path d="" fill="#D74D14" transform="translate(0,0)"/>
<path d="" fill="#D87FD6" transform="translate(0,0)"/>
<path d="" fill="#E3CDFF" transform="translate(0,0)"/>
<path d="" fill="#D35DD0" transform="translate(0,0)"/>
<path d="" fill="#EEEDFE" transform="translate(0,0)"/>
<path d="" fill="#EEEDFC" transform="translate(0,0)"/>
<path d="" fill="#EEAFF3" transform="translate(0,0)"/>
<path d="" fill="#E2E3E1" transform="translate(0,0)"/>
<path d="" fill="#F1A5F5" transform="translate(0,0)"/>
<path d="" fill="#F6FAFD" transform="translate(0,0)"/>
<path d="" fill="#ECB5F2" transform="translate(0,0)"/>
<path d="" fill="#F5FBFD" transform="translate(0,0)"/>
<path d="" fill="#F3F9FD" transform="translate(0,0)"/>
<path d="" fill="#E3F0FE" transform="translate(0,0)"/>
</svg>
