<?xml version="1.0" encoding="UTF-8"?>
<svg version="1.1" xmlns="http://www.w3.org/2000/svg" width="48" height="48">
<path d="M0 0 C4.68796317 2.8950501 8.77605467 6.42344712 10.234375 11.89453125 C11.16656452 18.74158704 11.3930195 24.99387098 7.671875 31.01953125 C4.75513181 34.64520508 1.8272454 37.6850209 -2.765625 38.89453125 C-7.73803986 39.30788603 -12.98333923 39.67294012 -17.83203125 38.31640625 C-20.44328306 37.74667858 -22.42118879 38.25169683 -25.015625 38.83203125 C-26.35367187 39.12400391 -26.35367187 39.12400391 -27.71875 39.421875 C-28.39421875 39.57785156 -29.0696875 39.73382813 -29.765625 39.89453125 C-31.04818123 36.04686256 -30.16036597 33.87480988 -29.140625 30.05078125 C-28.55997009 27.7213296 -28.55997009 27.7213296 -29.765625 24.89453125 C-30.61791122 17.10528249 -30.51464152 10.99245847 -25.51171875 4.70703125 C-18.77849885 -2.28226189 -9.08068249 -3.62970783 0 0 Z " fill="#48C558" transform="translate(33.765625,5.10546875)"/>
<path d="M0 0 C4.68796317 2.8950501 8.77605467 6.42344712 10.234375 11.89453125 C11.16656452 18.74158704 11.3930195 24.99387098 7.671875 31.01953125 C4.75513181 34.64520508 1.8272454 37.6850209 -2.765625 38.89453125 C-7.73803986 39.30788603 -12.98333923 39.67294012 -17.83203125 38.31640625 C-20.44328306 37.74667858 -22.42118879 38.25169683 -25.015625 38.83203125 C-26.35367187 39.12400391 -26.35367187 39.12400391 -27.71875 39.421875 C-28.39421875 39.57785156 -29.0696875 39.73382813 -29.765625 39.89453125 C-31.04818123 36.04686256 -30.16036597 33.87480988 -29.140625 30.05078125 C-28.55997009 27.7213296 -28.55997009 27.7213296 -29.765625 24.89453125 C-30.61791122 17.10528249 -30.51464152 10.99245847 -25.51171875 4.70703125 C-18.77849885 -2.28226189 -9.08068249 -3.62970783 0 0 Z M-23.16015625 9.5390625 C-25.80111138 13.67313713 -26.29927386 17.09169148 -25.765625 21.89453125 C-25.11304627 23.56676425 -24.44694951 25.23380276 -23.765625 26.89453125 C-23.640625 30.20703125 -23.640625 30.20703125 -23.765625 32.89453125 C-22.858125 32.85328125 -21.950625 32.81203125 -21.015625 32.76953125 C-17.765625 32.89453125 -17.765625 32.89453125 -15.828125 33.89453125 C-12.11639086 35.69415992 -8.55955078 35.48468254 -4.67578125 34.20703125 C0.16800697 32.0422097 2.68956417 29.67877562 5.234375 24.89453125 C6.64629837 20.65876113 7.09514048 17.05046723 5.3984375 12.80078125 C2.4530424 7.50302362 -0.96988051 4.68210762 -6.765625 2.89453125 C-13.50368365 1.81162897 -18.80227828 4.3999403 -23.16015625 9.5390625 Z " fill="#F7FBF8" transform="translate(33.765625,5.10546875)"/>
<path d="M0 0 C4.68796317 2.8950501 8.77605467 6.42344712 10.234375 11.89453125 C11.16656452 18.74158704 11.3930195 24.99387098 7.671875 31.01953125 C4.75513181 34.64520508 1.8272454 37.6850209 -2.765625 38.89453125 C-7.73803986 39.30788603 -12.98333923 39.67294012 -17.83203125 38.31640625 C-20.44328306 37.74667858 -22.42118879 38.25169683 -25.015625 38.83203125 C-26.35367187 39.12400391 -26.35367187 39.12400391 -27.71875 39.421875 C-28.39421875 39.57785156 -29.0696875 39.73382813 -29.765625 39.89453125 C-31.04818123 36.04686256 -30.16036597 33.87480988 -29.140625 30.05078125 C-28.55997009 27.7213296 -28.55997009 27.7213296 -29.765625 24.89453125 C-30.61791122 17.10528249 -30.51464152 10.99245847 -25.51171875 4.70703125 C-18.77849885 -2.28226189 -9.08068249 -3.62970783 0 0 Z M-25.140625 7.45703125 C-27.82486029 11.48338418 -29.0336594 14.11425429 -28.953125 19.01953125 C-28.94667969 19.88835938 -28.94023437 20.7571875 -28.93359375 21.65234375 C-28.9053757 23.93098575 -28.9053757 23.93098575 -27.765625 25.89453125 C-27.85342903 27.9395155 -28.00804038 29.98198073 -28.203125 32.01953125 C-28.30496094 33.11523438 -28.40679687 34.2109375 -28.51171875 35.33984375 C-28.59550781 36.18289062 -28.67929687 37.0259375 -28.765625 37.89453125 C-27.92257813 37.81074219 -27.07953125 37.72695313 -26.2109375 37.640625 C-24.56738281 37.48787109 -24.56738281 37.48787109 -22.890625 37.33203125 C-21.25480469 37.17541016 -21.25480469 37.17541016 -19.5859375 37.015625 C-16.765625 36.89453125 -16.765625 36.89453125 -14.765625 37.89453125 C-8.88717827 38.29994137 -3.93079523 37.92533362 1.234375 34.89453125 C6.70441895 30.10219186 8.85910702 25.21833336 9.671875 18.01953125 C9.50865663 11.93381757 5.99974423 7.57163202 1.734375 3.51953125 C-8.1704272 -2.91859018 -17.2846056 -1.01920021 -25.140625 7.45703125 Z " fill="#D2DCDF" transform="translate(33.765625,5.10546875)"/>
<path d="M0 0 C2.0625 0.4375 2.0625 0.4375 4 1 C5.125 5.75 5.125 5.75 4 8 C6.03949126 10.70800597 6.03949126 10.70800597 9 13 C12.74360341 12.94271002 12.74360341 12.94271002 16 12 C16.33 13.65 16.66 15.3 17 17 C12.91352472 18.00076946 10.05009787 18.4033794 6.3125 16.4375 C2.86636034 14.17111986 0.83310233 11.73952876 -1 8 C-1.3125 4.1875 -1.3125 4.1875 -1 1 C-0.67 0.67 -0.34 0.34 0 0 Z " fill="#F4FBF5" transform="translate(16,15)"/>
</svg>
